# xmcd
#
# Track frame offsets:
#	150
#	13322
#	25177
#	41702
#	56877
#	74177
#	89225
#	103992
#	114077
#	128005
#	146937
#	162775
#	183677
#	199230
#
# Disc length: 2810
#
# Revision: 3
# Processed by: cddbd v1.5.1PL0 Copyright (c) Steve Scherf et al.
# Submitted via: audiograbber 1.81.03
# Normalized: r2:DSETVAR2
#
DISCID=de0af80e
DTITLE=Various Artist - Country Friends [CD4)
DYEAR=2001
DGENRE=Country
TTITLE0=Alan Johnson - Don't Rock The Jukebox
TTITLE1=Marty Stuart - HillBilly Rock
TTITLE2=Dan Seals - Bop
TTITLE3=Mary Chapin Carpenter - Down At The Twist And Shout
TTITLE4=K.T. Oslin - Come Next Monday
TTITLE5=Pirates Of The Mississipi - Till I'm Holding You Again
TTITLE6=Marsha Thorton - A Bottle Of Wine And Pasty Cline
TTITLE7=George Hamilton IV - Abilene
TTITLE8=Clint Black - A Better man
TTITLE9=Nanci Griffith - From A Distance
TTITLE10=Doug Stone - I Thought It Was You
TTITLE11=Lorrie Morgan - Something Is Red
TTITLE12=Ricky Van Shelton - I Am A Simple Man
TTITLE13=Steve Earle - Guitar Town
EXTD=
EXTT0=
EXTT1=
EXTT2=
EXTT3=
EXTT4=
EXTT5=
EXTT6=
EXTT7=
EXTT8=
EXTT9=
EXTT10=
EXTT11=
EXTT12=
EXTT13=
PLAYORDER=
